<svg width="99" height="27" viewBox="0 0 99 27" fill="none" xmlns="http://www.w3.org/2000/svg">
<path d="M20.4845 5.8318C19.6351 5.03768 18.3861 4.41728 16.7623 3.9954C15.9129 1.34007 13.9644 0 10.9417 0C9.26798 0 7.919 0.421875 6.89478 1.26562C5.9455 2.05974 5.34595 3.02757 5.09614 4.16912C3.89705 4.59099 2.97275 5.16176 2.32324 5.88143C1.62377 6.65074 1.27403 7.59375 1.27403 8.63603C1.27403 9.52941 1.49886 10.2987 1.94852 10.9439C2.3732 11.5892 3.07267 12.1599 3.99697 12.7059C4.89629 13.227 6.09538 13.7482 7.59425 14.2693L12.3656 15.9816C13.6896 16.4531 14.7638 16.9494 15.5132 17.4706C16.2377 17.9669 16.7623 18.5377 17.0871 19.1581C17.3868 19.7785 17.5617 20.523 17.5617 21.3667C17.5617 21.5156 17.5367 21.739 17.4868 22.0368C15.863 22.5579 13.7396 22.8309 11.2415 22.8309C9.39289 22.8309 7.61923 22.6324 5.99546 22.2601C5.72067 21.3667 5.59576 20.3244 5.59576 19.1333C5.59576 18.5377 5.62074 18.0662 5.64572 17.7436C5.64572 17.6443 5.62074 17.545 5.5458 17.4458C5.47086 17.3713 5.37093 17.3217 5.27101 17.3217H0.374716C0.274792 17.3217 0.174868 17.3713 0.0999243 17.421C0.0249811 17.4706 0 17.545 0 17.6443C0.0249811 18.9099 0.549584 20.0018 1.57381 20.8952C2.52309 21.739 3.79712 22.3842 5.42089 22.8309C5.87055 24.0965 6.595 25.0892 7.61923 25.7592C8.66843 26.4789 10.0174 26.8263 11.6162 26.8263C12.8653 26.8263 13.9644 26.6278 14.8887 26.2059C15.813 25.784 16.5874 25.2381 17.137 24.568C17.6366 23.9476 17.9864 23.2776 18.1862 22.5579C20.6094 21.6397 21.8584 20.1011 21.8584 17.9669C21.8584 16.5772 21.3089 15.3612 20.2097 14.3686C19.1605 13.4256 17.4868 12.557 15.2385 11.7629L10.6419 10.1746C9.26798 9.67831 8.21877 9.23162 7.49432 8.80974C6.81983 8.41268 6.34519 7.96599 6.0704 7.44485C5.79561 6.92371 5.6707 6.22886 5.6707 5.38511C5.6707 5.23621 5.69569 5.01287 5.74565 4.71507C7.11961 4.2932 8.89326 4.06985 11.0167 4.06985C13.0901 4.06985 14.8138 4.24357 16.1628 4.59099C16.4126 5.50919 16.5625 6.6011 16.5625 7.84191C16.5625 8.2886 16.5625 8.61121 16.5375 8.85938C16.5375 8.95864 16.5625 9.0579 16.6374 9.13235C16.7123 9.2068 16.8123 9.25643 16.9122 9.25643H21.7335C21.8335 9.25643 21.9584 9.2068 22.0083 9.13235C22.0833 9.0579 22.1083 8.93382 22.0833 8.83456C21.9084 7.69301 21.3588 6.67555 20.4845 5.8318Z" fill="black"/>
<path d="M45.3171 4.76471C44.6177 3.15165 43.6934 1.93566 42.5193 1.19118C41.3451 0.397059 39.9712 0 38.4473 0C36.8985 0 35.4746 0.397059 34.2505 1.16636C33.0514 1.91085 32.0772 3.12684 31.3777 4.76471C29.2043 5.45956 27.5306 6.55147 26.4065 8.01562C25.2324 9.5046 24.6328 11.3162 24.6328 13.3759C24.6328 15.5349 25.2324 17.421 26.4564 18.9596C27.6305 20.4733 29.3792 21.5901 31.6525 22.2849C32.4019 23.7987 33.3512 24.9403 34.5253 25.6847C35.7244 26.454 37.0484 26.8511 38.4723 26.8511C39.8463 26.8511 41.1453 26.4789 42.3194 25.7096C43.4436 24.9899 44.4178 23.8235 45.1673 22.2849C47.3906 21.5901 49.1143 20.4733 50.2634 18.9596C51.4625 17.421 52.062 15.5349 52.062 13.3759C52.062 11.341 51.4625 9.55423 50.2634 8.06526C49.1143 6.6011 47.4405 5.50919 45.3171 4.76471ZM38.4473 22.4586C36.0492 22.4586 33.9508 22.1857 32.1771 21.6645C31.2028 19.6048 30.7032 16.8254 30.7032 13.3759C30.7032 10.0009 31.1279 7.32077 31.9273 5.36029C33.7759 4.78952 35.9742 4.49173 38.4473 4.49173C40.7956 4.49173 42.894 4.78952 44.7676 5.36029C45.5919 7.34559 45.9916 10.0506 45.9916 13.3759C45.9916 16.7509 45.517 19.5303 44.6177 21.6645C42.844 22.1857 40.7706 22.4586 38.4473 22.4586Z" fill="black"/>
<path d="M97.2009 8.04044C96.0518 6.6011 94.378 5.48438 92.2546 4.76471C91.5552 3.15165 90.6309 1.93566 89.4568 1.19118C88.2827 0.397059 86.9087 0 85.3848 0C83.836 0 82.4371 0.397059 81.188 1.16636C79.9889 1.91085 79.0147 3.12684 78.3152 4.76471C76.1418 5.45956 74.4681 6.55147 73.344 8.01562C72.1699 9.5046 71.5703 11.3162 71.5703 13.3759C71.5703 15.5349 72.1699 17.421 73.3939 18.9596C74.568 20.4733 76.3167 21.5901 78.59 22.2849C79.3394 23.7987 80.2887 24.9403 81.4628 25.6847C82.6619 26.454 83.9859 26.8511 85.4098 26.8511C86.7838 26.8511 88.0828 26.4789 89.2569 25.7096C90.3811 24.9899 91.3553 23.8235 92.1048 22.2849C94.3281 21.5901 96.0518 20.4733 97.2009 18.9596C98.4 17.421 98.9995 15.5349 98.9995 13.3759C98.9995 11.341 98.4 9.55423 97.2009 8.04044ZM85.3848 22.4586C82.9867 22.4586 80.8883 22.1857 79.1146 21.6645C78.1403 19.6296 77.6407 16.8254 77.6407 13.3759C77.6407 10.0009 78.0654 7.32077 78.8648 5.36029C80.7134 4.78952 82.9117 4.49173 85.3848 4.49173C87.7331 4.49173 89.8565 4.78952 91.7051 5.36029C92.5294 7.34559 92.9291 10.0506 92.9291 13.3759C92.9291 16.7509 92.4545 19.5303 91.5552 21.6645C89.7815 22.1857 87.7081 22.4586 85.3848 22.4586Z" fill="black"/>
<path d="M71.322 22.0368H60.2554V0.397084C60.2554 0.198555 60.0805 0.0248413 59.8807 0.0248413H55.3591C55.1592 0.0248413 54.9844 0.198555 54.9844 0.397084V18.1655C54.9844 20.5975 56.9829 22.5827 59.5309 22.7565C59.7308 25.1388 61.8292 27 64.4022 27H71.322C71.5218 27 71.6967 26.8263 71.6967 26.6278V22.409C71.6967 22.2105 71.5218 22.0368 71.322 22.0368Z" fill="black"/>
</svg>
